PathFileType	4	(X/Y/Z)	C:\Users\u0088756\Documents\documenten\software\SoftwareProjects\DC_TrackingSimulation\Data\Patient2\InputData\MarkerFile_DataSel.trc
DataRate	CameraRate	NumFrames	NumMarkers	Units	OrigDataRate	OrigDataStartFrame	OrigNumFrames
200.000000	200.000000	9	45	m	200.000000	225	257
Frame#	Times		CLAV		LSHO		LUA1		LELB		LLA1		LWRA		LWRB		LFIN		RSHO		RUA1		RELB		RLA1		RWRA		RWRB		RFIN		LASI		RASI		RPSI		LPSI		LTHI3		LKNE		LKNEmed		LTIB		LTIB2		LTIB3		LANK		LANKmed		LHEE		LTOE		LLatFoot		RTHI		RTHI2		RTHI3		RKNE		RTIB		RTIB2		RTIB3		RANK		RANKmed		RHEE		RTOE		RLatFoot		Unlabeled51		Unlabeled52		*52
			X1	Y1	Z1	X2	Y2	Z2	X3	Y3	Z3	X4	Y4	Z4	X5	Y5	Z5	X6	Y6	Z6	X7	Y7	Z7	X8	Y8	Z8	X9	Y9	Z9	X10	Y10	Z10	X11	Y11	Z11	X12	Y12	Z12	X13	Y13	Z13	X14	Y14	Z14	X15	Y15	Z15	X16	Y16	Z16	X17	Y17	Z17	X18	Y18	Z18	X19	Y19	Z19	X20	Y20	Z20	X21	Y21	Z21	X22	Y22	Z22	X23	Y23	Z23	X24	Y24	Z24	X25	Y25	Z25	X26	Y26	Z26	X27	Y27	Z27	X28	Y28	Z28	X29	Y29	Z29	X30	Y30	Z30	X31	Y31	Z31	X32	Y32	Z32	X33	Y33	Z33	X34	Y34	Z34	X35	Y35	Z35	X36	Y36	Z36	X37	Y37	Z37	X38	Y38	Z38	X39	Y39	Z39	X40	Y40	Z40	X41	Y41	Z41	X42	Y42	Z42	X43	Y43	Z43	X44	Y44	Z44	X45	Y45	Z45

225	1.12	1.4635	1.4528	-0.025572	1.3347	1.4685	-0.22413	1.3194	1.2197	-0.26267	1.2725	1.1279	-0.25535	1.3009	1.0009	-0.3126	1.3325	0.85906	-0.29487	1.2559	0.86762	-0.31965	1.2915	0.80108	-0.34751	1.4138	1.4961	0.19812	1.4882	1.2633	0.25753	1.515	1.1546	0.26933	1.6323	1.0798	0.25652	1.7231	1.0008	0.17488	1.6932	0.95474	0.23421	1.7589	0.96114	0.21867	1.4717	0.97554	-0.10496	1.4837	0.97374	0.13662	1.2413	1.0132	0.054436	1.2327	1.017	-0.013798	1.5149	0.70371	-0.21115	1.5876	0.51265	-0.1745	1.6042	0.51388	-0.056991	1.5439	0.32046	-0.17817	1.4859	0.32816	-0.17849	1.51	0.27648	-0.17261	1.4531	0.11873	-0.12598	1.5096	0.12898	-0.043306	1.3883	0.087196	-0.04769	1.6138	0.040041	-0.1117	1.5036	0.020382	-0.15452	1.4357	0.70965	0.19414	1.376	0.69638	0.19833	1.4112	0.66404	0.19055	1.3759	0.46793	0.13875	1.3477	0.2639	0.14726	1.2947	0.26938	0.1541	1.3165	0.21927	0.14341	1.2903	0.063296	0.10728	1.312	0.075106	0.012722	1.2174	0.015807	0.052323	1.4514	0.028433	0.060127	1.3734	-0.0079097	0.13702	0.23265	-0.025221	-0.67871	0.14745	-0.030974	0.67252	1.3221	1.6154	0.045013
226	1.125	1.4686	1.4523	-0.025786	1.3396	1.468	-0.22422	1.324	1.2192	-0.26271	1.277	1.1274	-0.25537	1.3055	1.0004	-0.31268	1.3379	0.85871	-0.29564	1.2607	0.86691	-0.3196	1.2966	0.80091	-0.3482	1.4191	1.4957	0.1979	1.4935	1.263	0.25729	1.5203	1.1542	0.26906	1.6379	1.0799	0.25582	1.7289	1.0016	0.17383	1.6993	0.95504	0.23295	1.7649	0.96194	0.2174	1.4764	0.97504	-0.10515	1.4883	0.97304	0.13646	1.2455	1.013	0.054549	1.2374	1.0167	-0.01391	1.5196	0.70346	-0.21105	1.5922	0.51217	-0.17401	1.6083	0.51324	-0.056567	1.5538	0.31898	-0.17868	1.4957	0.32453	-0.17894	1.5213	0.27377	-0.17335	1.469	0.11471	-0.1277	1.5256	0.1257	-0.044925	1.4056	0.080146	-0.049154	1.6324	0.040458	-0.11415	1.5225	0.017669	-0.15679	1.4386	0.70897	0.19394	1.3789	0.69622	0.19815	1.4136	0.66361	0.19048	1.377	0.46767	0.13879	1.3483	0.26377	0.14679	1.295	0.26948	0.154	1.317	0.21922	0.14326	1.2902	0.063276	0.10723	1.312	0.075046	0.012706	1.2173	0.015847	0.052313	1.4513	0.028229	0.060207	1.3733	-0.0079927	0.13714	0.23748	-0.025258	-0.6787	0.15231	-0.030998	0.6726	1.3272	1.615	0.044816
227	1.13	1.4736	1.4517	-0.026029	1.3444	1.4675	-0.22433	1.3286	1.2186	-0.26279	1.2815	1.1269	-0.2554	1.3102	0.99994	-0.31277	1.3429	0.85831	-0.29607	1.2656	0.86622	-0.31958	1.3018	0.80073	-0.34887	1.4244	1.4953	0.19768	1.4987	1.2625	0.25701	1.5255	1.1537	0.26874	1.6434	1.0799	0.25513	1.7346	1.0022	0.17277	1.7052	0.95524	0.23165	1.7709	0.96254	0.21616	1.4812	0.97464	-0.10535	1.4929	0.97224	0.1363	1.2502	1.0127	0.054403	1.2422	1.0164	-0.014094	1.5243	0.70308	-0.21084	1.5967	0.51153	-0.17351	1.612	0.51244	-0.056129	1.5634	0.31755	-0.17946	1.5054	0.32096	-0.17951	1.5327	0.27113	-0.1742	1.4849	0.11098	-0.12956	1.5417	0.12262	-0.04669	1.4231	0.073376	-0.050732	1.651	0.041069	-0.1167	1.5414	0.015142	-0.1591	1.4415	0.70824	0.19368	1.3816	0.69577	0.19823	1.4162	0.66307	0.19023	1.3781	0.4674	0.13878	1.3487	0.26369	0.14681	1.2953	0.26959	0.15384	1.317	0.21925	0.14329	1.2901	0.063276	0.10722	1.3119	0.074976	0.012704	1.2171	0.01581	0.052348	1.451	0.028028	0.060394	1.373	-0.0080807	0.1372	0.24284	-0.025773	-0.67941	0.15718	-0.030984	0.67253	1.3323	1.6145	0.044533
228	1.135	1.4786	1.4512	-0.026308	1.3493	1.4669	-0.22444	1.3332	1.218	-0.26287	1.2861	1.1263	-0.25547	1.3149	0.99944	-0.31289	1.3481	0.8579	-0.29644	1.2706	0.86544	-0.31956	1.3072	0.80048	-0.34953	1.4297	1.4948	0.19744	1.504	1.2621	0.25675	1.5307	1.1532	0.26844	1.6489	1.0797	0.25443	1.7402	1.0028	0.17168	1.7111	0.95554	0.23041	1.7767	0.96304	0.21492	1.486	0.97414	-0.10559	1.4976	0.97154	0.13607	1.2549	1.0124	0.054236	1.247	1.0161	-0.014234	1.5288	0.70244	-0.21068	1.6009	0.51073	-0.17303	1.6154	0.51146	-0.055667	1.5725	0.31618	-0.18016	1.5151	0.31759	-0.18019	1.544	0.26859	-0.17518	1.5023	0.10544	-0.13007	1.5579	0.11978	-0.048474	1.4408	0.066996	-0.0525	1.6695	0.041907	-0.1193	1.5604	0.012818	-0.16144	1.4443	0.70763	0.19353	1.3844	0.69549	0.19818	1.4188	0.6625	0.19009	1.3793	0.46715	0.13881	1.3491	0.26357	0.14681	1.2957	0.26965	0.15371	1.3172	0.21925	0.14323	1.29	0.063296	0.10716	1.3119	0.074906	0.012696	1.2168	0.015762	0.052368	1.4508	0.027884	0.060506	1.3728	-0.0081967	0.1373	0.24785	-0.025922	-0.67967	0.16185	-0.031073	0.67246	1.3375	1.6141	0.044302
229	1.14	1.4837	1.4506	-0.026577	1.3541	1.4663	-0.2246	1.3379	1.2174	-0.26295	1.2911	1.1256	-0.2553	1.3197	0.99884	-0.31301	1.3534	0.85742	-0.29683	1.2757	0.86463	-0.31958	1.3126	0.80019	-0.35016	1.435	1.4944	0.19719	1.5092	1.2616	0.25647	1.5359	1.1526	0.26811	1.6543	1.0795	0.25371	1.7458	1.0032	0.17061	1.7168	0.95554	0.22916	1.7825	0.96354	0.21365	1.4908	0.97364	-0.10584	1.5023	0.97074	0.13585	1.2597	1.0121	0.054063	1.2518	1.0158	-0.014451	1.5332	0.70167	-0.21044	1.6048	0.50979	-0.17259	1.6186	0.51027	-0.055192	1.5832	0.31435	-0.18055	1.525	0.31448	-0.18105	1.5554	0.26616	-0.17629	1.519	0.10108	-0.13154	1.5741	0.11732	-0.050408	1.4583	0.060886	-0.054559	1.6878	0.042929	-0.12186	1.5794	0.010736	-0.16379	1.4472	0.70702	0.19337	1.3873	0.69519	0.19807	1.4214	0.66199	0.1898	1.3804	0.46681	0.13878	1.3489	0.26346	0.14732	1.296	0.26973	0.15358	1.3175	0.21927	0.14314	1.2898	0.063266	0.10711	1.3118	0.074826	0.012675	1.2166	0.015753	0.052409	1.4509	0.027836	0.060776	1.3726	-0.0082757	0.1374	0.25266	-0.025995	-0.67971	0.16686	-0.031054	0.6725	1.3427	1.6136	0.044166
230	1.145	1.4888	1.4499	-0.026888	1.359	1.4656	-0.2248	1.3426	1.2168	-0.26306	1.2956	1.125	-0.2556	1.3247	0.99824	-0.31312	1.3588	0.85692	-0.29718	1.2809	0.86386	-0.31969	1.3182	0.79987	-0.3508	1.4403	1.4939	0.19689	1.5145	1.261	0.25617	1.5411	1.152	0.26786	1.6596	1.0793	0.253	1.7512	1.0035	0.16952	1.7226	0.95574	0.22801	1.7881	0.96384	0.21239	1.4957	0.97304	-0.1061	1.507	0.96994	0.13561	1.2646	1.0117	0.053831	1.2567	1.0154	-0.014686	1.5375	0.70079	-0.2102	1.6088	0.50873	-0.17231	1.6215	0.5089	-0.05474	1.5959	0.31222	-0.18265	1.5347	0.31118	-0.18216	1.5668	0.26389	-0.17749	1.535	0.097716	-0.13414	1.5903	0.11515	-0.052573	1.4764	0.055186	-0.056389	1.706	0.044304	-0.12448	1.5988	0.0088503	-0.166	1.4502	0.70626	0.19306	1.3901	0.69481	0.19795	1.424	0.66138	0.18958	1.3817	0.46652	0.13876	1.3494	0.26339	0.14733	1.2964	0.26986	0.15343	1.3176	0.2193	0.14314	1.2897	0.063246	0.10707	1.3118	0.074776	0.012711	1.2164	0.015696	0.052462	1.4508	0.027629	0.060919	1.3723	-0.0084007	0.13749	0.25756	-0.02596	-0.67967	0.17171	-0.031057	0.6725	1.3478	1.613	0.043916
231	1.15	1.4939	1.4493	-0.027179	1.3638	1.4649	-0.22497	1.3474	1.2161	-0.26319	1.3004	1.1243	-0.25572	1.3297	0.99754	-0.31323	1.3643	0.85634	-0.2975	1.2863	0.86297	-0.31972	1.3238	0.79951	-0.3514	1.4456	1.4933	0.1966	1.5197	1.2605	0.2559	1.5462	1.1513	0.26754	1.6649	1.079	0.25229	1.7565	1.0037	0.16844	1.7282	0.95564	0.2268	1.7936	0.96404	0.21115	1.5006	0.97244	-0.10639	1.5117	0.96914	0.13535	1.2695	1.0113	0.053617	1.2616	1.015	-0.014918	1.5417	0.69977	-0.20997	1.613	0.50758	-0.17242	1.6242	0.50732	-0.054287	1.6033	0.3115	-0.18267	1.5443	0.30797	-0.1835	1.5778	0.26195	-0.17912	1.5511	0.094016	-0.13759	1.606	0.11309	-0.054718	1.4942	0.049886	-0.058585	1.724	0.045906	-0.12698	1.6179	0.0073263	-0.16843	1.4532	0.70565	0.19274	1.3931	0.6945	0.19784	1.4268	0.66071	0.18932	1.3828	0.46623	0.13872	1.3499	0.26329	0.1473	1.2969	0.26994	0.15328	1.3179	0.21932	0.14309	1.2896	0.063286	0.107	1.3118	0.074736	0.012703	1.2162	0.015718	0.052452	1.4506	0.027458	0.061024	1.3721	-0.0085217	0.13763	0.26237	-0.025967	-0.67966	0.17663	-0.031155	0.67234	1.353	1.6124	0.043654
232	1.155	1.499	1.4486	-0.02753	1.3687	1.4642	-0.22519	1.3523	1.2154	-0.26332	1.3056	1.1235	-0.25568	1.3348	0.99684	-0.31336	1.3698	0.85575	-0.29773	1.2918	0.86211	-0.31983	1.3296	0.79909	-0.352	1.4509	1.4927	0.1963	1.5249	1.2599	0.25559	1.5513	1.1506	0.26724	1.6701	1.0786	0.25156	1.7618	1.0038	0.16736	1.7336	0.95524	0.22551	1.7991	0.96404	0.20992	1.5056	0.97184	-0.10668	1.5166	0.96824	0.13509	1.2746	1.0108	0.053286	1.2666	1.0146	-0.015127	1.5458	0.69858	-0.20969	1.6164	0.50626	-0.17208	1.6268	0.50554	-0.053871	1.6127	0.31051	-0.18346	1.5541	0.30511	-0.18503	1.5892	0.26004	-0.18054	1.5676	0.091746	-0.14007	1.6221	0.11152	-0.056862	1.5119	0.044996	-0.060975	1.7417	0.047746	-0.12945	1.6368	0.0062833	-0.17089	1.4562	0.70493	0.19248	1.396	0.69411	0.19765	1.4295	0.66015	0.18904	1.3841	0.46591	0.13872	1.3503	0.26319	0.14729	1.2974	0.27005	0.15311	1.3184	0.21932	0.14297	1.2896	0.063326	0.10696	1.3118	0.074626	0.012705	1.2161	0.015689	0.052477	1.4505	0.027244	0.061129	1.3719	-0.0085997	0.13773	0.26722	-0.026009	-0.67966	0.1814	-0.031213	0.67242	1.3581	1.6118	0.043484
233	1.16	1.5041	1.4479	-0.027846	1.3736	1.4635	-0.22541	1.3572	1.2147	-0.26349	1.3104	1.1228	-0.25595	1.3401	0.99604	-0.31349	1.3754	0.85506	-0.29796	1.2974	0.86126	-0.32002	1.3355	0.79863	-0.35253	1.4561	1.4921	0.19594	1.5301	1.2592	0.2553	1.5564	1.1499	0.26695	1.6753	1.0781	0.25083	1.7669	1.0037	0.16628	1.7389	0.95494	0.22433	1.8044	0.96404	0.20868	1.5106	0.97114	-0.10697	1.5214	0.96734	0.13481	1.2796	1.0103	0.053032	1.2716	1.0141	-0.015356	1.5498	0.69728	-0.2094	1.6191	0.5048	-0.17148	1.6293	0.50352	-0.053459	1.622	0.30972	-0.18432	1.564	0.30241	-0.18664	1.6004	0.25849	-0.18201	1.584	0.089456	-0.14254	1.6377	0.11016	-0.059105	1.5295	0.040502	-0.063458	1.7593	0.049966	-0.13187	1.6557	0.0056363	-0.1734	1.4593	0.70417	0.19213	1.3991	0.69373	0.19753	1.4322	0.65954	0.18883	1.3854	0.46556	0.13869	1.3508	0.26311	0.14727	1.298	0.27021	0.15294	1.319	0.21932	0.14284	1.2894	0.063326	0.10692	1.3119	0.074626	0.012629	1.2159	0.015637	0.052485	1.4504	0.027065	0.06126	1.3717	-0.0086917	0.1378	0.27205	-0.026007	-0.67964	0.18623	-0.031354	0.67217	1.3634	1.6112	0.043386
